<svg xmlns="http://www.w3.org/2000/svg" viewBox="0 0 80 65"><defs><style>.cls-1{fill:#cecece;}.cls-2{fill:none;}</style></defs><title>logo-gray</title><g id="レイヤー_2" data-name="レイヤー 2"><g id="Contents"><rect class="cls-1" x="68.51" y="55.77" width="2.09" height="8.95"/><path class="cls-1" d="M46.09,63a2.53,2.53,0,0,1-2.78-2.62A2.48,2.48,0,0,1,46,57.63a6.23,6.23,0,0,1,2.75.66v-2a7.21,7.21,0,0,0-2.79-.57,4.41,4.41,0,0,0-4.65,4.62c0,2.64,2,4.41,4.8,4.41a7.68,7.68,0,0,0,2.84-.56V62.32A7.1,7.1,0,0,1,46.09,63Z"/><path class="cls-1" d="M18.84,55.77A3.36,3.36,0,0,0,16,57.16a3.55,3.55,0,0,0-2.88-1.39,3.79,3.79,0,0,0-3.85,4v4.95h2.06V59.57a1.76,1.76,0,0,1,1.79-1.92A1.8,1.8,0,0,1,15,59.57v5.15h2V59.57a1.77,1.77,0,0,1,1.81-1.92,1.82,1.82,0,0,1,1.88,1.92v5.15h2.06V59.77A3.86,3.86,0,0,0,18.84,55.77Z"/><circle class="cls-1" cx="69.55" cy="53.63" r="1.16"/><path class="cls-1" d="M55.08,55.77a4.37,4.37,0,0,0-4.54,4.5,4.24,4.24,0,0,0,4.35,4.51,2.8,2.8,0,0,0,2.6-1.52v1.46h2V60.27A4.18,4.18,0,0,0,55.08,55.77Zm0,7.2a2.4,2.4,0,0,1-2.45-2.7,2.53,2.53,0,0,1,2.45-2.69,2.39,2.39,0,0,1,2.41,2.69A2.51,2.51,0,0,1,55.06,63Z"/><path class="cls-1" d="M39.15,57.65c-1.12,0-1.79.93-1.79,2.18v4.89H35.3V59.77a3.79,3.79,0,0,1,3.85-4h.75v1.87Z"/><path class="cls-1" d="M65.64,57.65c-1.13,0-1.79.93-1.79,2.18v4.89H61.79V59.77a3.79,3.79,0,0,1,3.85-4h.74v1.87Z"/><path class="cls-1" d="M29.14,55.76a4.4,4.4,0,0,0-4.44,4.53c0,2.82,2,4.49,4.8,4.49a10,10,0,0,0,3.26-.57V62.4a9.67,9.67,0,0,1-3.16.68c-1.55,0-2.62-.69-2.82-2.06H33a7.56,7.56,0,0,0,.06-1A4.11,4.11,0,0,0,29.14,55.76Zm-2.35,3.63a2.29,2.29,0,0,1,4.52,0Z"/><circle class="cls-1" cx="54.35" cy="14.16" r="10.3"/><path class="cls-1" d="M54.35,26.91a12.75,12.75,0,0,1-8.3-22.43.62.62,0,0,0-.12-1L40.25.61a3.78,3.78,0,0,0-3.39,0L17.67,10.14a3.79,3.79,0,0,0-2.1,3.39L15.52,36.2a3.79,3.79,0,0,0,2.13,3.41l7.84,3.83L36.8,49a3.79,3.79,0,0,0,3.32,0L59.3,39.7a3.8,3.8,0,0,0,2.14-3.41l0-10.45a.61.61,0,0,0-.9-.54A12.57,12.57,0,0,1,54.35,26.91ZM33.89,39l-2.2-1.09V31.33a3.5,3.5,0,0,0-2.77-3.71c-.66-.07-1.22.47-1.24,1.6s0,6.69,0,6.69l-2-1V28.68c0-2.75-1.77-3.6-2.55-3.68-.44-.05-1.25.22-1.25,1.63V33l-2-1v-6c0-1.75,1-3.49,3-3.29a5.11,5.11,0,0,1,3.81,3A2.59,2.59,0,0,1,29,25.1c1,.14,4.94,1.59,4.94,6.88Z"/><rect class="cls-2" width="80" height="65"/></g></g></svg>