<?xml version="1.0" encoding="UTF-8" standalone="no"?>
<svg width="94px" height="99px" viewBox="0 0 94 99" version="1.1" xmlns="http://www.w3.org/2000/svg" xmlns:xlink="http://www.w3.org/1999/xlink" xmlns:sketch="http://www.bohemiancoding.com/sketch/ns">
    <!-- Generator: Sketch 3.5.1 (25234) - http://www.bohemiancoding.com/sketch -->
    <title>user-icon</title>
    <desc>Created with Sketch.</desc>
    <defs></defs>
    <g id="Page-1" stroke="none" stroke-width="1" fill="none" fill-rule="evenodd" sketch:type="MSPage">
        <g id="profile" sketch:type="MSLayerGroup" fill="#B3B3B4">
            <path d="M79.7,69 C79.7,69 60.2,65.4 58.9,60.2 C58.9,60.2 56.6,55 58.8,51.6 C58.8,51.6 62.8,48.2 65.6,40.8 C67.2,39.4 69.2,36.2 69.8,33.8 C70.5,30.6 69.8,27.2 68.3,26.9 L68.3,25 C68.3,6.4 55.9,0 47,0 C38.1,0 25.7,6.4 25.7,25 L25.7,26.9 C24.2,27.2 23.5,30.7 24.2,33.8 C24.7,36.2 26.7,39.4 28.4,40.8 C31.2,48.2 35.2,51.6 35.2,51.6 C37.4,55.1 35.1,60.2 35.1,60.2 C33.9,65.3 14.4,69 14.4,69 C0,72.9 1,97.9 1,97.9 L1,98.5 L47,98.5 L93,98.5 L93,97.9 C93.1,97.9 94.1,72.9 79.7,69 L79.7,69 Z" id="user-icon" sketch:type="MSShapeGroup"></path>
        </g>
    </g>
</svg>
